<?xml version="1.0" standalone="no"?>
<!DOCTYPE svg PUBLIC "-//W3C//DTD SVG 20010904//EN"
 "http://www.w3.org/TR/2001/REC-SVG-20010904/DTD/svg10.dtd">
<svg version="1.0" xmlns="http://www.w3.org/2000/svg"
 width="750.000000pt" height="750.000000pt" viewBox="0 0 750.000000 750.000000"
 preserveAspectRatio="xMidYMid meet">

<g transform="translate(0.000000,750.000000) scale(0.100000,-0.100000)"
fill="#000000" stroke="none">
<path d="M3480 7254 c-19 -2 -80 -9 -135 -15 -1407 -151 -2620 -1193 -2985
-2564 -89 -333 -115 -540 -115 -920 0 -321 11 -441 61 -690 215 -1060 890
-1948 1854 -2440 349 -178 722 -293 1140 -352 182 -25 700 -25 890 0 790 107
1482 448 2040 1007 563 562 898 1251 1000 2053 25 200 28 604 5 802 -110 949
-567 1778 -1302 2363 -504 402 -1095 652 -1743 738 -118 16 -619 28 -710 18z
m-949 -2192 c85 -32 203 -109 266 -174 55 -57 150 -191 178 -251 l23 -49 -48
-96 c-61 -123 -92 -212 -122 -343 -21 -94 -23 -128 -23 -359 l0 -255 33 -128
c31 -121 88 -280 146 -410 l26 -58 -33 -67 c-94 -190 -264 -382 -404 -455
-205 -107 -389 -105 -581 5 -120 69 -277 247 -356 406 -188 374 -236 887 -128
1343 87 364 269 662 497 815 77 51 178 93 265 108 62 11 187 -5 261 -32z
m2789 13 c133 -45 215 -98 321 -206 528 -537 556 -1764 52 -2299 -89 -94 -165
-149 -266 -192 -60 -26 -89 -31 -179 -35 -98 -5 -115 -3 -195 23 -205 66 -387
241 -518 495 l-39 77 42 98 c140 332 180 524 169 819 -9 259 -53 441 -156 644
l-48 96 61 100 c82 133 213 267 316 322 65 35 126 58 205 77 36 9 189 -4 235
-19z m-1894 -680 c103 -50 206 -200 254 -370 104 -365 -25 -820 -264 -931 -65
-31 -162 -32 -223 -4 -120 54 -215 183 -267 364 -69 236 -52 496 44 701 46 98
84 150 145 200 95 78 204 92 311 40z m889 4 c132 -62 235 -230 281 -458 23
-114 15 -342 -15 -456 -44 -166 -144 -321 -248 -382 -34 -20 -63 -27 -119 -31
-68 -4 -80 -2 -138 27 -280 138 -386 689 -205 1067 60 127 167 230 262 255 50
13 129 3 182 -22z"/>
</g>
</svg>
